<svg xmlns="http://www.w3.org/2000/svg" viewBox="0 0 186.84 84"><defs><style>.cls-1{fill:#ffc695;}.cls-2{fill:#333331;}.cls-3{fill:none;stroke:#3a2c24;stroke-linecap:round;stroke-miterlimit:10;stroke-width:7px;}.cls-4{fill:#fff;}.cls-5{fill:#f42f4c;}.cls-6{fill:#cf9b6b;}</style></defs><title>testeAtivo 10</title><g id="Camada_2" data-name="Camada 2"><g id="Camada_1-2" data-name="Camada 1"><circle class="cls-1" cx="42" cy="42" r="42"/><circle class="cls-2" cx="24" cy="39" r="6"/><circle class="cls-2" cx="61" cy="39" r="6"/><path class="cls-2" d="M15.08,50a27,27,0,0,0,53.84,0Z"/><line class="cls-3" x1="16" y1="29" x2="23.5" y2="20.5"/><line class="cls-3" x1="67.46" y1="28.91" x2="59.96" y2="20.41"/><path class="cls-4" d="M42,50H15.09s3.41,6.5,6.41,6.5H61.59c3,0,6.41-6.5,6.41-6.5Z"/><path class="cls-5" d="M22,66s22.33-7.11,40.17-.06A27,27,0,0,1,42,75,26.49,26.49,0,0,1,22,66Z"/><path class="cls-5" d="M42,75C29,75,21,65,21,65s23.33-6.11,41.17.94"/><circle class="cls-6" cx="42" cy="39" r="9"/><path class="cls-4" d="M92.76,14.34a.72.72,0,0,1,.16-.5.62.62,0,0,1,.5-.19H103a6.52,6.52,0,0,1,2,.29,6.79,6.79,0,0,1,1.68.78,7.17,7.17,0,0,1,1.38,1.2,8.17,8.17,0,0,1,1,1.51,8,8,0,0,1,.65,1.7,7.41,7.41,0,0,1,.22,1.81,7.51,7.51,0,0,1-.48,2.64,7.37,7.37,0,0,1-1.39,2.3,7,7,0,0,1-2.16,1.62,6.29,6.29,0,0,1-2.79.64H98.56v7.14c0,.43-.23.65-.69.65H93.42a.73.73,0,0,1-.48-.16.63.63,0,0,1-.18-.49Zm11.29,6.57a2.83,2.83,0,0,0-.15-.9,2.53,2.53,0,0,0-.46-.8,2.31,2.31,0,0,0-.73-.58,2,2,0,0,0-1-.22H98.56v5h3.18a2.24,2.24,0,0,0,1-.22,2.41,2.41,0,0,0,.73-.56,2.72,2.72,0,0,0,.45-.8A2.92,2.92,0,0,0,104.05,20.91Z"/><path class="cls-4" d="M112.62,14.31a.68.68,0,0,1,.16-.46.63.63,0,0,1,.5-.2h4.41a.85.85,0,0,1,.48.18.56.56,0,0,1,.25.48v21c0,.44-.24.66-.73.66h-4.41a.58.58,0,0,1-.66-.66Z"/><path class="cls-4" d="M122.68,14.31a.69.69,0,0,1,.17-.46.6.6,0,0,1,.49-.2h4.91a1,1,0,0,1,.43.11,1,1,0,0,1,.39.36q1.91,3.08,3.78,6.06l3.8,6.06v-12a.73.73,0,0,1,.24-.42.64.64,0,0,1,.42-.15h4.27a.84.84,0,0,1,.53.17.61.61,0,0,1,.21.49v21a.52.52,0,0,1-.18.44.76.76,0,0,1-.5.15h-4.78a.52.52,0,0,1-.35-.14,2.37,2.37,0,0,1-.31-.36l-3.95-6.52-4-6.53V35.27a.7.7,0,0,1-.15.49.71.71,0,0,1-.54.17h-4.26a.64.64,0,0,1-.5-.19.73.73,0,0,1-.16-.46Z"/><path class="cls-4" d="M145.36,14.31a.6.6,0,0,1,.21-.48.71.71,0,0,1,.5-.18h16.14a.76.76,0,0,1,.48.17.64.64,0,0,1,.24.49V18a.84.84,0,0,1-.19.52.63.63,0,0,1-.53.25H157V35.22a.72.72,0,0,1-.19.49.67.67,0,0,1-.51.22h-4.4a.7.7,0,0,1-.48-.21.63.63,0,0,1-.22-.5V18.8h-5.16a.69.69,0,0,1-.5-.2.74.74,0,0,1-.21-.57Z"/><path class="cls-4" d="M163.54,24.81a11.34,11.34,0,0,1,.41-3,11.35,11.35,0,0,1,3-5.08,10.89,10.89,0,0,1,2.32-1.79A11.7,11.7,0,0,1,172,13.73a11.55,11.55,0,0,1,6.1,0,11.7,11.7,0,0,1,2.74,1.16A11.3,11.3,0,0,1,184.92,19a11.53,11.53,0,0,1,1.16,2.75,11.39,11.39,0,0,1-1.16,8.83,10.83,10.83,0,0,1-1.79,2.31,11.61,11.61,0,0,1-2.33,1.8,11.27,11.27,0,0,1-2.74,1.15,11.55,11.55,0,0,1-6.1,0,11.62,11.62,0,0,1-6.86-5.26A11,11,0,0,1,164,27.86,11.34,11.34,0,0,1,163.54,24.81Zm5.81,0a6.33,6.33,0,0,0,.42,2.32A5.74,5.74,0,0,0,170.94,29a5.38,5.38,0,0,0,1.79,1.26,5.88,5.88,0,0,0,4.56,0,5.23,5.23,0,0,0,1.8-1.26,5.61,5.61,0,0,0,1.18-1.88,6.62,6.62,0,0,0,0-4.64,5.69,5.69,0,0,0-1.18-1.9,5.39,5.39,0,0,0-1.8-1.27,5.77,5.77,0,0,0-4.56,0,5.56,5.56,0,0,0-1.79,1.27,5.84,5.84,0,0,0-1.17,1.9A6.37,6.37,0,0,0,169.35,24.8Z"/><path class="cls-4" d="M92.09,41.85a1.13,1.13,0,0,1,.27-.79,1,1,0,0,1,.77-.29h15.6a9.68,9.68,0,0,1,3.9.79A10.12,10.12,0,0,1,118,46.94a9.73,9.73,0,0,1,.8,4,9.49,9.49,0,0,1-.55,3.28,9,9,0,0,1-1.56,2.71,11.38,11.38,0,0,1,2.68,3.69,10.69,10.69,0,0,1,1,4.54,10.15,10.15,0,0,1-.82,4,11,11,0,0,1-2.22,3.36,10.49,10.49,0,0,1-3.27,2.29,9.45,9.45,0,0,1-3.93.85h-17a1.09,1.09,0,0,1-.75-.25,1,1,0,0,1-.29-.76Zm17.7,9.26a3.41,3.41,0,0,0-.26-1.32,3.55,3.55,0,0,0-.73-1.08,3.52,3.52,0,0,0-1.13-.74,3.77,3.77,0,0,0-1.44-.27h-5v6.82h5a4.32,4.32,0,0,0,1.47-.25,3.26,3.26,0,0,0,1.15-.7,3.45,3.45,0,0,0,.74-1.09A3.38,3.38,0,0,0,109.79,51.11ZM111,64.76a3.92,3.92,0,0,0-.27-1.41A4,4,0,0,0,110,62.1a4.1,4.1,0,0,0-1.15-.91,3.17,3.17,0,0,0-1.45-.35h-6.22v7.85h6.22a3.16,3.16,0,0,0,1.43-.33,3.83,3.83,0,0,0,1.16-.88,4.13,4.13,0,0,0,1-2.72Z"/><path class="cls-4" d="M122.64,58.25a17.93,17.93,0,0,1,2.45-9.08,17.84,17.84,0,0,1,2.81-3.65,17.3,17.3,0,0,1,3.63-2.81,18.13,18.13,0,0,1,4.29-1.81,17.9,17.9,0,0,1,9.56,0,18.28,18.28,0,0,1,4.31,1.81,17.94,17.94,0,0,1,6.45,6.46,18.38,18.38,0,0,1,1.81,4.3A17.94,17.94,0,0,1,158,63a18,18,0,0,1-1.81,4.27,17.58,17.58,0,0,1-2.81,3.62,18.34,18.34,0,0,1-3.64,2.81,18,18,0,0,1-24.6-6.43A17.2,17.2,0,0,1,123.28,63,17.64,17.64,0,0,1,122.64,58.25Zm9.1,0a10.14,10.14,0,0,0,.65,3.64,9.05,9.05,0,0,0,1.85,2.95,8.58,8.58,0,0,0,2.8,2,9.36,9.36,0,0,0,7.15,0,8.62,8.62,0,0,0,2.81-2,9.05,9.05,0,0,0,1.85-2.95,10.49,10.49,0,0,0,0-7.27,9,9,0,0,0-1.85-3,8.57,8.57,0,0,0-6.39-2.73,8.54,8.54,0,0,0-3.57.73,8.64,8.64,0,0,0-2.8,2,9,9,0,0,0-1.85,3A10.2,10.2,0,0,0,131.74,58.23Z"/><path class="cls-4" d="M159.33,41.8a1,1,0,0,1,.31-.75,1.14,1.14,0,0,1,.79-.28h25.29a1.2,1.2,0,0,1,.75.26,1,1,0,0,1,.37.77v5.83a1.26,1.26,0,0,1-.29.81,1,1,0,0,1-.83.39h-8.11V74.56a1.12,1.12,0,0,1-.31.77,1,1,0,0,1-.79.34h-6.89a1.1,1.1,0,0,1-.75-.32,1,1,0,0,1-.36-.79V48.83h-8.08a1.11,1.11,0,0,1-.79-.3,1.2,1.2,0,0,1-.31-.9Z"/></g></g></svg>